<svg xmlns="http://www.w3.org/2000/svg" version="1.1" xmlns:xlink="http://www.w3.org/1999/xlink" xmlns:svgjs="http://svgjs.com/svgjs" width="835px" height="770px"><svg xmlns="http://www.w3.org/2000/svg" version="1.1" width="835px" height="770px" style="shape-rendering:geometricPrecision; text-rendering:geometricPrecision; image-rendering:optimizeQuality; fill-rule:evenodd; clip-rule:evenodd" xmlns:xlink="http://www.w3.org/1999/xlink">
<g><path style="opacity:1" fill="#fcfdfc" d="M -0.5,-0.5 C 109.167,-0.5 218.833,-0.5 328.5,-0.5C 301.445,18.3857 281.611,43.0524 269,73.5C 267.732,78.6366 266.066,83.6366 264,88.5C 263.333,91.1667 263.333,93.8333 264,96.5C 289.863,160.788 316.863,224.455 345,287.5C 367.858,344.624 391.025,401.624 414.5,458.5C 419.119,450.53 423.286,442.197 427,433.5C 445.239,386.231 464.239,339.231 484,292.5C 511.254,228.637 538.588,164.637 566,100.5C 567.824,94.0959 567.49,87.7626 565,81.5C 553.417,47.425 532.917,20.0916 503.5,-0.5C 613.833,-0.5 724.167,-0.5 834.5,-0.5C 834.5,256.167 834.5,512.833 834.5,769.5C 556.167,769.5 277.833,769.5 -0.5,769.5C -0.5,512.833 -0.5,256.167 -0.5,-0.5 Z"></path></g>
<g><path style="opacity:1" fill="#010102" d="M 328.5,-0.5 C 386.833,-0.5 445.167,-0.5 503.5,-0.5C 532.917,20.0916 553.417,47.425 565,81.5C 567.49,87.7626 567.824,94.0959 566,100.5C 538.588,164.637 511.254,228.637 484,292.5C 464.239,339.231 445.239,386.231 427,433.5C 423.286,442.197 419.119,450.53 414.5,458.5C 391.025,401.624 367.858,344.624 345,287.5C 316.863,224.455 289.863,160.788 264,96.5C 263.333,93.8333 263.333,91.1667 264,88.5C 266.066,83.6366 267.732,78.6366 269,73.5C 281.611,43.0524 301.445,18.3857 328.5,-0.5 Z"></path></g>
<g><path style="opacity:1" fill="#eee403" d="M 455.5,753.5 C 446.5,753.5 437.5,753.5 428.5,753.5C 428.5,681.167 428.5,608.833 428.5,536.5C 454.545,508.956 481.045,481.956 508,455.5C 547.496,413 588.163,371.333 630,330.5C 631.875,325.125 631.875,319.791 630,314.5C 620.52,302.871 611.687,290.871 603.5,278.5C 631.81,276.864 660.144,275.364 688.5,274C 692.112,272.861 695.446,271.194 698.5,269C 699.894,267.261 700.561,265.261 700.5,263C 699.083,258.001 697.25,253.167 695,248.5C 668.732,198.509 642.565,148.509 616.5,98.5C 617,98.1667 617.5,97.8333 618,97.5C 687.613,119.124 737.947,162.791 769,228.5C 774.351,243.552 778.684,258.885 782,274.5C 792.673,356.87 803.673,439.204 815,521.5C 816.257,563.072 803.257,599.405 776,630.5C 764.418,641.42 752.251,651.586 739.5,661C 667.424,705.214 589.424,734.214 505.5,748C 488.833,749.901 472.166,751.734 455.5,753.5 Z"></path></g>
<g><path style="opacity:1" fill="#bdb102" d="M 209.5,97.5 C 211.199,97.3398 212.866,97.5065 214.5,98C 187.097,151.308 159.597,204.474 132,257.5C 128.188,270.366 133.022,276.866 146.5,277C 172.233,278.021 197.899,279.855 223.5,282.5C 215.194,294.639 206.694,306.639 198,318.5C 197.174,323.529 198.174,328.195 201,332.5C 209.356,339.858 217.356,347.524 225,355.5C 281.008,415.166 337.175,474.332 393.5,533C 352.452,600.267 311.286,667.433 270,734.5C 269.275,735.059 268.442,735.392 267.5,735.5C 211.224,721.134 157.891,699.634 107.5,671C 88.6001,660.101 71.4334,646.934 56,631.5C 27.1844,599.493 13.8511,561.826 16,518.5C 27.0007,439.835 37.334,361.169 47,282.5C 52.9687,240.241 69.9687,203.241 98,171.5C 121.147,145.688 148.313,125.188 179.5,110C 189.714,106.051 199.714,101.884 209.5,97.5 Z"></path></g>
<g><path style="opacity:1" fill="#beb206" d="M 189.5,254.5 C 181.167,253.833 172.833,253.167 164.5,252.5C 188.945,205.929 213.612,159.262 238.5,112.5C 239.902,112.865 240.902,113.699 241.5,115C 254.147,145.134 267.314,174.967 281,204.5C 281.667,205.833 281.667,207.167 281,208.5C 267.232,224.544 254.066,241.044 241.5,258C 224.171,257.211 206.838,256.045 189.5,254.5 Z"></path></g>
<g><path style="opacity:1" fill="#efe509" d="M 590.5,109.5 C 591.496,109.414 592.329,109.748 593,110.5C 618.088,157.008 642.921,203.675 667.5,250.5C 640.716,252.006 614.05,254.173 587.5,257C 579.39,247.278 571.89,237.112 565,226.5C 559.667,220.5 554.333,214.5 549,208.5C 548.333,207.167 548.333,205.833 549,204.5C 563.392,173.052 577.226,141.385 590.5,109.5 Z"></path></g>
<g><path style="opacity:1" fill="#beb207" d="M 292.5,233.5 C 293.79,234.058 294.623,235.058 295,236.5C 329.649,323.632 365.816,410.132 403.5,496C 403.22,497.395 402.553,498.562 401.5,499.5C 396.554,496.057 392.054,492.057 388,487.5C 368.033,465.532 347.366,444.199 326,423.5C 293.007,389.673 260.507,355.339 228.5,320.5C 250.098,291.614 271.431,262.614 292.5,233.5 Z"></path></g>
<g><path style="opacity:1" fill="#efe509" d="M 536.5,234.5 C 537.239,234.369 537.906,234.536 538.5,235C 559.305,263.445 580.472,291.612 602,319.5C 602.667,320.5 602.667,321.5 602,322.5C 540.359,384.475 479.026,446.808 418,509.5C 421.237,497.362 426.903,486.362 435,476.5C 469.641,396.213 503.474,315.546 536.5,234.5 Z"></path></g>
<g><path style="opacity:1" fill="#dcd679" d="M 164.5,252.5 C 172.833,253.167 181.167,253.833 189.5,254.5C 180.808,254.831 172.141,254.498 163.5,253.5C 163.624,252.893 163.957,252.56 164.5,252.5 Z"></path></g>
<g><path style="opacity:1" fill="#040403" d="M 567.5,414.5 C 611.501,414.333 655.501,414.5 699.5,415C 702.932,417.426 706.099,420.26 709,423.5C 712.299,433.166 709.466,440.332 700.5,445C 655.833,445.667 611.167,445.667 566.5,445C 563.063,443.895 560.563,441.728 559,438.5C 558.601,435.314 557.768,432.314 556.5,429.5C 557.555,422.463 561.222,417.463 567.5,414.5 Z"></path></g>
<g><path style="opacity:1" fill="#bdb206" d="M 428.5,536.5 C 428.5,608.833 428.5,681.167 428.5,753.5C 437.5,753.5 446.5,753.5 455.5,753.5C 413.189,755.641 370.855,754.141 328.5,749C 317.433,747.063 306.433,744.896 295.5,742.5C 333.919,681.569 371.752,620.236 409,558.5C 415.051,550.624 421.551,543.291 428.5,536.5 Z"></path></g>
<g><path style="opacity:1" fill="#fcfcfb" d="M 372.5,654.5 C 389.335,651.836 401.835,657.836 410,672.5C 413.741,687.511 409.241,699.344 396.5,708C 379.997,715.24 366.831,711.407 357,696.5C 350.478,681.771 353.311,669.271 365.5,659C 367.898,657.476 370.231,655.976 372.5,654.5 Z"></path></g>
</svg><style>@media (prefers-color-scheme: light) { :root { filter: none; } }
</style></svg>